<svg xmlns="http://www.w3.org/2000/svg" xmlns:xlink="http://www.w3.org/1999/xlink" width="226" height="227" viewBox="0 0 226 227">
  <defs>
    <clipPath id="clip-path">
      <rect width="179.641" height="198.521" fill="none"/>
    </clipPath>
    <clipPath id="clip-file">
      <rect width="226" height="227"/>
    </clipPath>
  </defs>
  <g id="file" clip-path="url(#clip-file)">
    <g id="반복_그리드_3" data-name="반복 그리드 3" transform="translate(24 28)" opacity="0.81" clip-path="url(#clip-path)">
      <g transform="translate(-1383 -289)">
        <path id="file-alt-solid" d="M104.791,63.623V0H11.228A11.2,11.2,0,0,0,0,11.228V228.294a11.2,11.2,0,0,0,11.228,11.228H168.413a11.2,11.2,0,0,0,11.228-11.228V74.85H116.018A11.261,11.261,0,0,1,104.791,63.623Zm29.94,110.4a5.63,5.63,0,0,1-5.614,5.614H50.524a5.63,5.63,0,0,1-5.614-5.614v-3.743a5.63,5.63,0,0,1,5.614-5.614h78.593a5.63,5.63,0,0,1,5.614,5.614Zm0-29.94a5.63,5.63,0,0,1-5.614,5.614H50.524a5.63,5.63,0,0,1-5.614-5.614v-3.743a5.63,5.63,0,0,1,5.614-5.614h78.593a5.63,5.63,0,0,1,5.614,5.614Zm0-33.683v3.743a5.63,5.63,0,0,1-5.614,5.614H50.524a5.63,5.63,0,0,1-5.614-5.614V110.4a5.63,5.63,0,0,1,5.614-5.614h78.593A5.63,5.63,0,0,1,134.731,110.4Zm44.91-53.378V59.88h-59.88V0h2.854a11.219,11.219,0,0,1,7.953,3.275l45.8,45.846A11.192,11.192,0,0,1,179.641,57.027Z" transform="translate(1383 289)" fill="#7f9edd" opacity="0.13"/>
      </g>
    </g>
  </g>
</svg>
